<svg xmlns="http://www.w3.org/2000/svg" version="1.1" xmlns:xlink="http://www.w3.org/1999/xlink" xmlns:svgjs="http://svgjs.com/svgjs" width="512" height="512" x="0" y="0" viewBox="0 0 256 256" style="enable-background:new 0 0 512 512" xml:space="preserve" class=""><g><path fill="#ffa91a" d="m142.501 28.573 26.653 54.006 59.599 8.66c12.303 1.788 17.216 16.907 8.313 25.585l-43.126 42.038 10.181 59.358c2.102 12.254-10.76 21.598-21.764 15.813l-53.307-28.025-53.307 28.025c-11.004 5.785-23.866-3.559-21.764-15.813l10.181-59.358-43.126-42.038c-8.903-8.678-3.99-23.798 8.313-25.585l59.599-8.66 26.653-54.006c5.502-11.149 21.4-11.149 26.902 0z" data-original="#ffa91a" class=""></path><path fill="#ffc91d" d="M94.324 87.234a2 2 0 0 1-1.792-2.886l19.03-38.56a2 2 0 1 1 3.587 1.771l-19.03 38.56a1.999 1.999 0 0 1-1.795 1.115zm22.571-45.733a2 2 0 0 1-1.792-2.885l.288-.584a1.999 1.999 0 1 1 3.587 1.769l-.288.584a2 2 0 0 1-1.795 1.116z" data-original="#ffc91d"></path><path fill="#f79219" d="M230.94 91.717c1.533 5.028.5 10.844-3.874 15.107l-39.361 38.368a10 10 0 0 0-2.876 8.851l9.292 54.176c2.102 12.254-10.76 21.598-21.764 15.813l-48.653-25.579a9.998 9.998 0 0 0-9.307 0l-48.653 25.579c-3.795 1.995-7.81 2.19-11.356 1.088 2.568 8.482 12.552 13.541 21.356 8.912l53.307-28.025 53.307 28.025c11.004 5.785 23.866-3.559 21.764-15.813l-10.181-59.358 43.126-42.038c8.354-8.142 4.541-21.958-6.127-25.106z" data-original="#f79219"></path><path fill="#ef7816" d="M234.382 93.236c3.398 5.6 3.118 13.292-2.316 18.588l-39.361 38.368a10 10 0 0 0-2.876 8.851l9.292 54.176c2.102 12.254-10.76 21.598-21.764 15.813l-48.653-25.579a9.998 9.998 0 0 0-9.307 0l-48.653 25.579c-5.104 2.683-10.606 2.108-14.831-.499 3.87 6.319 12.286 9.466 19.831 5.499l53.307-28.025 53.307 28.025c11.004 5.785 23.866-3.559 21.764-15.813l-10.181-59.358 43.126-42.038c7.378-7.192 5.26-18.803-2.685-23.587z" data-original="#ef7816" class=""></path><ellipse cx="85.525" cy="141.912" fill="#f79219" rx="9.225" ry="5.912" data-original="#f79219"></ellipse><ellipse cx="172.574" cy="141.912" fill="#f79219" rx="9.225" ry="5.912" data-original="#f79219"></ellipse><path fill="#995222" d="M129.05 180.003c15.638 0 28.474-9.859 29.808-22.426.123-1.163-.826-2.164-1.995-2.164h-55.625c-1.169 0-2.119 1.002-1.995 2.164 1.333 12.567 14.169 22.426 29.807 22.426z" data-original="#995222" class=""></path><path fill="#e63950" d="M129.05 193.505c-8.523 0-15.433-6.909-15.433-15.432v-22.66h30.865v22.66c0 8.523-6.909 15.432-15.432 15.432z" data-original="#e63950"></path><path fill="#e8566f" d="M127.05 155.413v23.766a2 2 0 0 0 4 0v-23.766z" data-original="#e8566f" class=""></path><circle cx="156.039" cy="113.644" r="20" fill="#f1f2f2" data-original="#f1f2f2" class=""></circle><circle cx="156.039" cy="113.644" r="7.5" fill="#995222" data-original="#995222" class=""></circle><path fill="#995222" d="M87.432 123.212a4.002 4.002 0 0 1-2.412-7.194c9.114-6.875 23.944-6.876 33.06 0a4 4 0 0 1-4.819 6.387c-6.239-4.708-17.185-4.707-23.423 0a3.982 3.982 0 0 1-2.406.807z" data-original="#995222" class=""></path><path fill="#ffa91a" d="m204.578 58.573 1.139.307c.893.24.893 1.507 0 1.747l-1.139.307a20.916 20.916 0 0 0-14.76 14.76l-.307 1.139c-.24.893-1.507.893-1.747 0l-.307-1.139a20.916 20.916 0 0 0-14.76-14.76l-1.139-.307c-.893-.24-.893-1.507 0-1.747l1.139-.307a20.916 20.916 0 0 0 14.76-14.76l.307-1.139c.24-.893 1.507-.893 1.747 0l.307 1.139a20.916 20.916 0 0 0 14.76 14.76z" data-original="#ffa91a" class=""></path><path fill="#ffc91d" d="M195.751 59.25c.515.139.515.869 0 1.007a9.367 9.367 0 0 0-6.61 6.61c-.139.515-.869.515-1.007 0a9.367 9.367 0 0 0-6.61-6.61c-.515-.139-.515-.869 0-1.007a9.367 9.367 0 0 0 6.61-6.61c.139-.515.869-.515 1.007 0a9.369 9.369 0 0 0 6.61 6.61z" data-original="#ffc91d"></path><path fill="#ffa91a" d="m77.578 42.573 1.139.307c.893.24.893 1.507 0 1.747l-1.139.307a20.916 20.916 0 0 0-14.76 14.76l-.307 1.139c-.24.893-1.507.893-1.747 0l-.307-1.139a20.916 20.916 0 0 0-14.76-14.76l-1.139-.307c-.893-.24-.893-1.507 0-1.747l1.139-.307a20.916 20.916 0 0 0 14.76-14.76l.307-1.139c.24-.893 1.507-.893 1.747 0l.307 1.139a20.916 20.916 0 0 0 14.76 14.76z" data-original="#ffa91a" class=""></path><path fill="#ffc91d" d="M68.751 43.25c.515.139.515.869 0 1.007a9.367 9.367 0 0 0-6.61 6.61c-.139.515-.869.515-1.007 0a9.367 9.367 0 0 0-6.61-6.61c-.515-.139-.515-.869 0-1.007a9.367 9.367 0 0 0 6.61-6.61c.139-.515.869-.515 1.007 0a9.369 9.369 0 0 0 6.61 6.61z" data-original="#ffc91d"></path><path fill="#ffa91a" d="m48.078 166.073 1.139.307c.893.24.893 1.507 0 1.747l-1.139.307a20.916 20.916 0 0 0-14.76 14.76l-.307 1.139c-.24.893-1.507.893-1.747 0l-.307-1.139a20.916 20.916 0 0 0-14.76-14.76l-1.139-.307c-.893-.24-.893-1.507 0-1.747l1.139-.307a20.916 20.916 0 0 0 14.76-14.76l.307-1.139c.24-.893 1.507-.893 1.747 0l.307 1.139a20.916 20.916 0 0 0 14.76 14.76z" data-original="#ffa91a" class=""></path><path fill="#ffc91d" d="M39.251 166.75c.515.139.515.869 0 1.007a9.367 9.367 0 0 0-6.61 6.61c-.139.515-.869.515-1.007 0a9.367 9.367 0 0 0-6.61-6.61c-.515-.139-.515-.869 0-1.007a9.367 9.367 0 0 0 6.61-6.61c.139-.515.869-.515 1.007 0a9.369 9.369 0 0 0 6.61 6.61z" data-original="#ffc91d"></path></g></svg>
